<?xml version="1.0" standalone="no"?>
<!DOCTYPE svg PUBLIC "-//W3C//DTD SVG 20010904//EN" "http://www.w3.org/TR/2001/REC-SVG-20010904/DTD/svg10.dtd">
<!-- Created using Krita: https://krita.org -->
<svg xmlns="http://www.w3.org/2000/svg" 
    xmlns:xlink="http://www.w3.org/1999/xlink"
    xmlns:krita="http://krita.org/namespaces/svg/krita"
    xmlns:sodipodi="http://sodipodi.sourceforge.net/DTD/sodipodi-0.dtd"
    width="184.32pt"
    height="184.32pt"
    viewBox="0 0 184.32 184.32">
<defs/>
<path id="shape0" transform="translate(13.6533333333333, 10.24)" fill="#d43338" fill-rule="evenodd" d="M10.6667 67.84L11.7333 10.6667L62.72 9.6L0 0L10.6667 67.84" sodipodi:nodetypes="ccccc"/><path id="shape01" transform="matrix(-1 0 0 1 173.525333333333 10.1973333333333)" fill="#d43338" fill-rule="evenodd" stroke-opacity="0" stroke="#000000" stroke-width="0" stroke-linecap="square" stroke-linejoin="bevel" d="M10.6667 67.84L11.7333 10.6667L62.72 9.6L0 0L10.6667 67.84" sodipodi:nodetypes="ccccc"/><path id="shape02" transform="matrix(-1 0 0 -1 174.037333333333 168.874666666667)" fill="#d43338" fill-rule="evenodd" stroke-opacity="0" stroke="#000000" stroke-width="0" stroke-linecap="square" stroke-linejoin="bevel" d="M10.6667 67.84L11.7333 10.6667L62.72 9.6L0 0L10.6667 67.84" sodipodi:nodetypes="ccccc"/><path id="shape03" transform="matrix(1 0 0 -1 12.6293333333326 169.045333333333)" fill="#d43338" fill-rule="evenodd" stroke-opacity="0" stroke="#000000" stroke-width="0" stroke-linecap="square" stroke-linejoin="bevel" d="M10.6667 67.84L11.7333 10.6667L62.72 9.6L0 0L10.6667 67.84" sodipodi:nodetypes="ccccc"/><ellipse id="shape1" transform="matrix(0.978622333610154 0 0 0.982574486081802 137.499479029864 90.2828980747871)" rx="6.12" ry="4.68" cx="6.12" cy="4.68" fill="#caa14f" fill-rule="evenodd"/><path id="shape2" transform="matrix(0.978622333610154 0 0 0.982574486081802 38.1203784078536 87.6299410207002)" fill="#caa14f" fill-rule="evenodd" d="M107.52 11.2104L0 42.444L0.792 25.92L109.656 0L107.52 11.2104" sodipodi:nodetypes="ccccc"/><path id="shape3" transform="matrix(0.978622333610154 0 0 0.982574486081802 82.0742638889123 41.380222848073)" fill="none" stroke="#ca974f" stroke-width="12.96" stroke-linecap="square" stroke-linejoin="bevel" d="M0.0619541 0.759539C-0.802149 -1.18469 7.64274 1.19172 8.58195 1.40754C20.8203 4.21975 35.9719 13.001 45.278 21.7115C51.283 27.3323 56.3237 33.2493 60.062 40.5899C60.846 42.1296 64.0049 50.9919 63.7579 50.8931" sodipodi:nodetypes="ccccc"/><path id="shape4" transform="matrix(0.978622333610154 0 0 0.982574486081802 37.6741266536508 51.0008322854649)" fill="none" stroke="#fbcf31" stroke-width="7.2" stroke-linecap="square" stroke-linejoin="bevel" d="M41.856 0.105112L0 62.7667L100.776 37.7755C95.3636 23.162 79.1987 12.0514 65.496 5.76431C63.6418 4.91355 43.9923 -1.81683 45.264 0.472312" sodipodi:nodetypes="ccccc"/><path id="shape5" transform="matrix(0.978622333610154 0 0 0.982574486081802 43.9451381469207 52.6322122924243)" fill="#fbcf31" fill-rule="evenodd" d="M37.392 0L0 56.592L92.664 34.1928L74.352 11.3184L56.328 2.0088L37.392 0" sodipodi:nodetypes="cccccc"/><path id="shape6" transform="matrix(0.978622333610154 0 0 0.982574486081802 36.5232668664964 112.440338160394)" fill="none" stroke="#fbcf31" stroke-width="3.6" stroke-linecap="square" stroke-linejoin="miter" stroke-miterlimit="2" d="M0 0L1.848 10.1304" sodipodi:nodetypes="cc"/><path id="shape7" transform="matrix(0.978622333610154 0 0 0.982574486081802 42.7942783597663 94.0819176934691)" fill="none" stroke="#dd462c" stroke-width="7.92" stroke-linecap="square" stroke-linejoin="miter" stroke-miterlimit="2" d="M0 26.028L97.128 0" sodipodi:nodetypes="cc"/><ellipse id="shape8" transform="matrix(0.978622333610154 0 0 0.982574486081802 52.2419013257473 93.1127125947026)" rx="10.44" ry="5.76" cx="10.44" cy="5.76" fill="#dd462c" fill-rule="evenodd"/><ellipse id="shape9" transform="matrix(0.978622333610154 0 0 0.982574486081802 64.2202386891356 68.3518355454412)" rx="8.64" ry="4.68" cx="8.64" cy="4.68" fill="#dd462c" fill-rule="evenodd"/><ellipse id="shape10" transform="matrix(0.978622333610154 0 0 0.982574486081802 79.7216164535205 54.2027629458633)" rx="7.92" ry="4.68" cx="7.92" cy="4.68" fill="#dd462c" fill-rule="evenodd"/><ellipse id="shape11" transform="matrix(0.978622333610154 0 0 0.982574486081802 92.4045618971081 66.9369282854834)" rx="9" ry="5.04" cx="9" cy="5.04" fill="#dd462c" fill-rule="evenodd"/><ellipse id="shape12" transform="matrix(0.978622333610154 0 0 0.982574486081802 110.019763902091 74.0114645852724)" rx="10.08" ry="5.04" cx="10.08" cy="5.04" fill="#dd462c" fill-rule="evenodd"/><ellipse id="shape13" transform="matrix(0.978622333610154 0 0 0.982574486081802 79.0170083733211 80.3785472550825)" rx="10.8" ry="5.04000000000001" cx="10.8" cy="5.04000000000001" fill="#dd462c" fill-rule="evenodd"/><ellipse id="shape14" transform="matrix(0.978622333610154 0 0 0.982574486081802 100.8598588595 86.0381762949137)" rx="9.36" ry="3.6" cx="9.36" cy="3.6" fill="#dd462c" fill-rule="evenodd"/><ellipse id="shape15" transform="matrix(0.978622333610154 0 0 0.982574486081802 75.4939679723246 92.4052589647238)" rx="7.56" ry="3.96" cx="7.56" cy="3.96" fill="#dd462c" fill-rule="evenodd"/><ellipse id="shape16" transform="matrix(0.978622333610154 0 0 0.982574486081802 60.6971982881391 82.5009081450192)" rx="7.92" ry="3.23999999999999" cx="7.92" cy="3.23999999999999" fill="#dd462c" fill-rule="evenodd"/><path id="shape17" transform="matrix(0.978622333610154 0 0 0.982574486081802 38.331760817739 110.151557453762)" fill="#fbcf31" fill-rule="evenodd" stroke="#fbcf31" stroke-width="3.6" stroke-linecap="square" stroke-linejoin="bevel" d="M0 12.4598C0.267487 13.6635 2.144 11.1769 3.336 10.8614C6.53299 10.0151 13.438 9.15115 13.896 5.02937C14.0888 3.29386 11.472 -1.36082 11.472 0.385371" sodipodi:nodetypes="cccc"/><path id="shape18" transform="matrix(0.978622333610154 0 0 0.982574486081802 52.3271163417535 108.938442926818)" fill="#fbcf31" fill-rule="evenodd" stroke="#fbcf31" stroke-width="3.6" stroke-linecap="square" stroke-linejoin="bevel" d="M0.0269198 3.2184C-0.149529 2.90079 0.593392 3.6684 0.74692 3.78C13.197 12.8302 11.9522 2.39883 17.2829 0" sodipodi:nodetypes="ccc"/><path id="shape19" transform="matrix(0.978622333610154 0 0 0.982574486081802 69.2405665298856 105.377509936644)" fill="#fbcf31" fill-rule="evenodd" stroke="#fbcf31" stroke-width="3.6" stroke-linecap="square" stroke-linejoin="bevel" d="M0 3.62408C0.406133 -2.95527 13.0481 1.69846 19.512 0.405685" sodipodi:nodetypes="cc"/><path id="shape20" transform="matrix(0.978622333610154 0 0 0.982574486081802 88.0423553085224 97.2230115999486)" fill="#fbcf31" fill-rule="evenodd" stroke="#fbcf31" stroke-width="3.6" stroke-linecap="square" stroke-linejoin="bevel" d="M0.299491 8.7048C-1.16042 7.47847 3.12669 7.46912 4.35549 7.3872C10.7962 6.95782 11.3527 0.742232 14.6515 0" sodipodi:nodetypes="ccc"/><path id="shape21" transform="matrix(0.978622333610154 0 0 0.982574486081802 100.391522855479 94.5488370579458)" fill="#fbcf31" fill-rule="evenodd" stroke="#fbcf31" stroke-width="3.6" stroke-linecap="square" stroke-linejoin="bevel" d="M0.0165597 3.456C-0.0782618 3.32799 0.259961 4.05232 0.37656 4.1904C4.43916 9.00138 22.1128 10.0815 20.5126 0" sodipodi:nodetypes="ccc"/><path id="shape22" transform="matrix(0.978622333610154 0 0 0.982574486081802 120.465570525472 89.8371961982215)" fill="#fbcf31" fill-rule="evenodd" stroke="#fbcf31" stroke-width="3.6" stroke-linecap="square" stroke-linejoin="bevel" d="M0 4.7952C4.21939 0.662675 12.4532 8.81787 17.352 0" sodipodi:nodetypes="cc"/><path id="shape23" transform="matrix(0.978622333610154 0 0 0.982574486081802 38.590117096488 112.100760440774)" fill="none" stroke="#fbcf31" stroke-width="5.04" stroke-linecap="square" stroke-linejoin="miter" stroke-miterlimit="2" d="M0 7.1712L5.976 0" sodipodi:nodetypes="cc"/><path id="shape24" transform="matrix(0.978622333610154 0 0 0.982574486081802 42.6533567531759 115.135736309868)" fill="none" stroke="#fbcf31" stroke-width="5.04" stroke-linecap="square" stroke-linejoin="miter" stroke-miterlimit="2" d="M0 1.5336L5.952 0" sodipodi:nodetypes="cc"/><path id="shape25" transform="matrix(0.978622333610154 0 0 0.982574486081802 58.6714460356051 99.6849500671894)" fill="none" stroke="#fbcf31" stroke-width="5.04" stroke-linecap="square" stroke-linejoin="miter" stroke-miterlimit="2" d="M0 11.9232L46.728 0" sodipodi:nodetypes="cc"/><path id="shape26" transform="matrix(0.978622333610154 0 0 0.982574486081802 82.5227074742166 102.974609226002)" fill="#fbcf31" fill-rule="evenodd" stroke="#fbcf31" stroke-width="5.04" stroke-linecap="square" stroke-linejoin="bevel" d="M0.155714 2.0304C-1.751 -3.11773 14.4431 5.0901 16.4997 0" sodipodi:nodetypes="cc"/><path id="shape27" transform="matrix(0.978622333610154 0 0 0.982574486081802 35.1140508005931 47.6022173205617)" fill="none" stroke="#faa932" stroke-width="1.44" stroke-linecap="square" stroke-linejoin="miter" stroke-miterlimit="2" d="M0 65.7936L43.152 0" sodipodi:nodetypes="cc"/><path id="shape28" transform="matrix(0.978622333610154 0 0 0.982574486081802 35.8891196368399 88.8609102543206)" fill="none" stroke="#faa932" stroke-width="1.44" stroke-linecap="square" stroke-linejoin="miter" stroke-miterlimit="2" d="M0 24.2568L105.576 0" sodipodi:nodetypes="cc"/><path id="shape29" transform="matrix(0.978622333610154 0 0 0.982574486081802 35.9126065712717 112.716245057584)" fill="none" stroke="#faa932" stroke-width="1.44" stroke-linecap="square" stroke-linejoin="miter" stroke-miterlimit="2" d="M0 0L1.896 11.8584" sodipodi:nodetypes="cc"/><path id="shape30" transform="matrix(0.978622333610154 0 0 0.982574486081802 44.4359290111506 103.452094604038)" fill="#faa932" fill-rule="evenodd" stroke="#faa932" stroke-width="1.44" stroke-linecap="square" stroke-linejoin="bevel" d="M0.170488 1.02605C-1.21583 0.526972 6.3542 -1.42674 4.80249 1.89005" sodipodi:nodetypes="cc"/><path id="shape31" transform="matrix(0.978622333610154 0 0 0.982574486081802 37.5332050470605 112.100760440774)" fill="#faa932" fill-rule="evenodd" stroke="#faa932" stroke-width="1.44" stroke-linecap="square" stroke-linejoin="bevel" d="M0 3.4128C0 0.800131 9.45226 1.04113 7.056 0" sodipodi:nodetypes="cc"/><path id="shape32" transform="matrix(0.978622333610154 0 0 0.982574486081802 82.1583804673328 67.3601404768284)" fill="#faa932" fill-rule="evenodd" stroke="#faa932" stroke-width="1.44" stroke-linecap="square" stroke-linejoin="bevel" d="M0 1.96688C0 0.137737 9.70599 -0.859315 8.04 0.973278" sodipodi:nodetypes="cc"/><path id="shape33" transform="matrix(0.978622333610154 0 0 0.982574486081802 74.123533649724 60.1460149516963)" fill="#faa932" fill-rule="evenodd" stroke="#faa932" stroke-width="1.44" stroke-linecap="square" stroke-linejoin="bevel" d="M0.146366 0.409743C-0.891426 -1.45828 3.8582 3.69673 5.93037 3.17454" sodipodi:nodetypes="cc"/><path id="shape34" transform="matrix(0.978622333610154 0 0 0.982574486081802 110.295727916536 64.2203019744369)" fill="#faa932" fill-rule="evenodd" stroke="#faa932" stroke-width="1.44" stroke-linecap="square" stroke-linejoin="bevel" d="M0 0C1.6209 0.291763 4.11325 1.37589 5.568 2.1816" sodipodi:nodetypes="cc"/><path id="shape35" transform="matrix(0.978622333610154 0 0 0.982574486081802 101.793457652253 78.7372494881668)" fill="#faa932" fill-rule="evenodd" stroke="#faa932" stroke-width="1.44" stroke-linecap="square" stroke-linejoin="bevel" d="M0 0C1.31867 0 4.416 1.2855 4.416 2.8512" sodipodi:nodetypes="cc"/><path id="shape36" transform="matrix(0.978622333610154 0 0 0.982574486081802 83.8259528119851 72.907166362047)" fill="#faa932" fill-rule="evenodd" stroke="#faa932" stroke-width="1.44" stroke-linecap="square" stroke-linejoin="bevel" d="M0 0.166277C0 -0.657417 3.85381 1.80196 4.176 2.67188" sodipodi:nodetypes="cc"/><path id="shape37" transform="matrix(0.978622333610154 0 0 0.982574486081802 95.2640898802339 92.1135112389416)" fill="#faa932" fill-rule="evenodd" stroke="#faa932" stroke-width="1.44" stroke-linecap="square" stroke-linejoin="bevel" d="M0 0.0593154C0.89786 -0.210043 3.54611 0.480713 3.984 1.26892" sodipodi:nodetypes="cc"/><path id="shape38" transform="matrix(0.978622333610154 0 0 0.982574486081802 53.9975460836978 86.5263134319371)" fill="#faa932" fill-rule="evenodd" stroke="#faa932" stroke-width="1.44" stroke-linecap="square" stroke-linejoin="bevel" d="M1.8 0C1.8 1.46109 0.534401 2.67024 0 3.9528" sodipodi:nodetypes="cc"/><path id="shape39" transform="matrix(0.978622333610154 0 0 0.982574486081802 92.3218553514781 102.029427431677)" fill="#faa932" fill-rule="evenodd" stroke="#faa932" stroke-width="1.44" stroke-linecap="square" stroke-linejoin="bevel" d="M0.0545068 0.486744C-0.529779 -0.170578 3.76251 0.0377727 4.37451 0.0115442" sodipodi:nodetypes="cc"/><path id="shape40" transform="matrix(0.978622333610154 0 0 0.982574486081802 110.530597260853 98.1780739363783)" fill="#faa932" fill-rule="evenodd" stroke="#faa932" stroke-width="1.44" stroke-linecap="square" stroke-linejoin="bevel" d="M0 0C0.943906 0.707929 1.97491 1.20191 3.048 1.6848" sodipodi:nodetypes="cc"/><path id="shape41" transform="matrix(0.978622333610154 0 0 0.982574486081802 131.480942773944 91.9383333383666)" fill="#faa932" fill-rule="evenodd" stroke="#faa932" stroke-width="1.44" stroke-linecap="square" stroke-linejoin="bevel" d="M1.344 0C0.873997 0 0.384242 0.449128 0 0.6912" sodipodi:nodetypes="cc"/><path id="shape42" transform="matrix(0.978622333610154 0 0 0.982574486081802 131.786272921562 81.7297781423129)" fill="#faa932" fill-rule="evenodd" stroke="#faa932" stroke-width="1.44" stroke-linecap="square" stroke-linejoin="bevel" d="M2.352 0C2.03963 1.12454 0.832034 1.8061 0 2.5272" sodipodi:nodetypes="cc"/><path id="shape43" transform="matrix(0.978622333610154 0 0 0.982574486081802 59.5404626095843 111.273039749202)" fill="#faa932" fill-rule="evenodd" stroke="#faa932" stroke-width="1.44" stroke-linecap="square" stroke-linejoin="bevel" d="M0 1.9656C2.42664 1.23761 4.68859 0.230347 7.248 0" sodipodi:nodetypes="cc"/>
</svg>
